<svg width="661" height="86" viewBox="0 0 661 86" fill="none" xmlns="http://www.w3.org/2000/svg">
<path d="M151.337 32.7037L244.14 7.83719L257.858 59.0313L165.055 83.8978L151.337 32.7037Z" stroke="#D9D9D9" stroke-width="3"/>
<path fill-rule="evenodd" clip-rule="evenodd" d="M171.569 39.1086C172.492 42.5556 170.447 46.0987 167 47.0224L171.554 64.0212C172.143 63.6168 172.81 63.304 173.54 63.1086C176.987 62.1849 180.53 64.2305 181.453 67.6776L237.626 52.6262C236.702 49.1792 238.748 45.6361 242.195 44.7125L237.735 28.0689C234.288 28.9925 230.745 26.9469 229.821 23.4999L171.569 39.1086ZM193.917 52.3351C194.736 55.3914 196.989 56.7738 199.877 55.9999C202.813 55.2132 204.073 52.8894 203.254 49.8331L201.255 42.3726C200.43 39.2922 198.17 37.8858 195.234 38.6725C192.346 39.4463 191.092 41.7942 191.918 44.8746L193.917 52.3351ZM193.232 51.0998C192.645 48.9098 190.95 47.3006 188.798 47.645L190.442 42.2264L189.939 40.3493L181.804 42.5289L182.494 45.1039L187.187 43.8465L185.747 48.7721L186.257 50.6733L187.821 50.2541C189.096 49.9123 189.954 50.2243 190.418 51.957L190.663 52.8715C191.127 54.6043 190.876 55.4969 189.577 55.8451C188.518 56.1288 187.797 55.6514 187.301 54.1852L184.509 54.9332C185.444 58.0359 187.551 59.3543 190.367 58.5998C193.519 57.755 194.431 55.5761 193.522 52.1828L193.232 51.0998ZM209.755 53.3531C206.867 54.1269 204.614 52.7445 203.795 49.6882L201.796 42.2278C200.97 39.1473 202.224 36.7994 205.112 36.0256C208.048 35.2389 210.308 36.6453 211.133 39.7258L213.132 47.1862C213.951 50.2425 212.691 52.5664 209.755 53.3531ZM225.751 36.7633C224.803 33.2256 222.251 31.6911 218.858 32.6004L214.189 33.8514L216.622 42.931L214.302 43.5528L214.926 45.8827L217.247 45.2609L217.663 46.8143L215.342 47.4361L215.967 49.766L218.287 49.1442L218.703 50.6975L221.663 49.9043L221.247 48.351L226.839 46.8526L226.215 44.5228L220.623 46.0212L220.148 44.2488L221.857 43.791C225.25 42.8818 226.699 40.3009 225.751 36.7633ZM200.535 50.5617C200.928 52.0298 200.443 53.0109 199.167 53.3527C197.916 53.688 197.029 53.0744 196.636 51.6064L194.637 44.146C194.237 42.6539 194.692 41.6551 195.943 41.3198C197.219 40.978 198.136 41.6092 198.536 43.1013L200.535 50.5617ZM209.046 50.7058C210.321 50.364 210.806 49.3829 210.413 47.9149L208.414 40.4544C208.014 38.9623 207.097 38.3311 205.822 38.6729C204.57 39.0082 204.116 40.007 204.515 41.4991L206.514 48.9595C206.908 50.4275 207.794 51.0411 209.046 50.7058ZM221.085 41.0058C222.673 40.5802 223.216 39.4288 222.719 37.5758C222.223 35.7227 221.177 34.9969 219.589 35.4225L217.904 35.8739L219.4 41.4572L221.085 41.0058ZM177.551 53.1144C177.859 54.2634 177.177 55.4444 176.028 55.7523C174.879 56.0602 173.698 55.3783 173.39 54.2293C173.082 53.0803 173.764 51.8992 174.913 51.5914C176.062 51.2835 177.243 51.9654 177.551 53.1144ZM234.281 40.1435C235.43 39.8356 236.112 38.6546 235.804 37.5056C235.496 36.3566 234.315 35.6747 233.166 35.9826C232.017 36.2905 231.335 37.4715 231.643 38.6205C231.951 39.7695 233.132 40.4514 234.281 40.1435Z" fill="#D9D9D9"/>
<path d="M275.433 42.8199V36.9255H300.202V42.8199H275.433ZM275.433 54.7411V48.9129H300.202V54.7411H275.433ZM324.957 19.6398H329.726V65.8013H323.302V28.3157L316.348 33.2167V25.9315L324.957 19.6398ZM366.729 47.5884C369.445 48.8467 371.895 51.7608 371.895 55.6683C371.895 62.4899 367.06 66.7947 359.643 66.7947C352.026 66.7947 347.457 62.4236 347.126 55.8007H353.285C353.55 58.8473 355.735 60.8341 359.643 60.8341C363.352 60.8341 365.603 58.9135 365.603 55.3371C365.603 52.3568 363.484 50.5687 359.709 50.5687H355.272V45.6015H359.51C362.689 45.6015 364.61 43.9458 364.61 40.8992C364.61 38.1176 362.822 36.2632 359.577 36.2632C356.066 36.2632 354.278 37.9852 354.013 41.6278H347.788C348.185 34.5413 352.291 30.4351 359.444 30.4351C366.332 30.4351 370.835 34.5413 370.835 40.4356C370.835 44.2107 368.782 46.4625 366.729 47.5884ZM387.257 30.2364C394.74 30.2364 398.582 34.8062 398.582 42.8199V66H393.35L392.886 62.7548C391.495 65.0728 388.979 66.861 385.137 66.861C378.713 66.861 374.408 62.6223 374.408 56.0657C374.408 48.9129 379.375 45.2703 387.058 45.2703H392.158V42.8199C392.158 38.7137 390.634 36.3957 387.124 36.3957C384.276 36.3957 382.157 37.9189 381.826 41.0317H375.402C375.733 34.3426 380.236 30.2364 387.257 30.2364ZM392.158 55.6021V50.8336H387.058C383.15 50.8336 380.899 52.6218 380.899 56.0657C380.899 59.2447 382.952 61.1653 386.462 61.1653C389.972 61.1653 392.158 58.9135 392.158 55.6021ZM414.55 31.0974H425.279V66H419.053V54.2113H415.278L408.986 66H401.701L409.119 53.284C405.543 51.827 402.827 48.1844 402.827 42.4887C402.827 35.4022 407.596 31.0974 414.55 31.0974ZM419.053 48.7143V36.9255H414.815C411.106 36.9255 409.119 39.0448 409.119 42.6874C409.119 46.5949 410.973 48.7143 414.682 48.7143H419.053ZM448.854 47.4559C452.762 48.9792 454.484 52.4231 454.484 55.867C454.484 62.1587 450.444 66 442.297 66H431.303V31.0974H441.768C448.854 31.0974 452.695 34.74 452.695 40.7668C452.695 43.2835 451.305 45.8664 448.854 47.4559ZM437.529 36.4619V45.4028H441.437C444.682 45.4028 446.404 43.8133 446.404 40.8992C446.404 38.1839 444.682 36.4619 441.37 36.4619H437.529ZM442.562 60.5692C446.337 60.5692 448.126 58.8473 448.126 55.6683C448.126 52.4893 446.337 50.8336 442.562 50.8336H437.529V60.5692H442.562ZM476.583 66L467.113 51.0323L464.795 53.549V66H458.437V31.0974H464.795V45.9326L468.901 39.5084L474.663 31.0974H482.279L471.285 45.9989L483.935 66H476.583ZM496.242 30.2364C503.726 30.2364 507.567 34.8062 507.567 42.8199V66H502.335L501.871 62.7548C500.481 65.0728 497.964 66.861 494.123 66.861C487.698 66.861 483.394 62.6223 483.394 56.0657C483.394 48.9129 488.361 45.2703 496.043 45.2703H501.143V42.8199C501.143 38.7137 499.62 36.3957 496.11 36.3957C493.262 36.3957 491.142 37.9189 490.811 41.0317H484.387C484.718 34.3426 489.222 30.2364 496.242 30.2364ZM501.143 55.6021V50.8336H496.043C492.136 50.8336 489.884 52.6218 489.884 56.0657C489.884 59.2447 491.937 61.1653 495.447 61.1653C498.957 61.1653 501.143 58.9135 501.143 55.6021Z" fill="url(#paint0_linear_453_516)"/>
<path d="M114 48.75L118.5 46.5L0 48.75L118.5 50.5L114 48.75Z" fill="url(#paint1_linear_453_516)"/>
<path d="M547 48.75L542.5 46.5L661 48.75L542.5 50.5L547 48.75Z" fill="url(#paint2_linear_453_516)"/>
<defs>
<linearGradient id="paint0_linear_453_516" x1="392" y1="0" x2="392" y2="79" gradientUnits="userSpaceOnUse">
<stop stop-color="#BF953F"/>
<stop offset="0.213542" stop-color="#FCF6BA"/>
<stop offset="0.4375" stop-color="#B38728"/>
<stop offset="0.739583" stop-color="#FBF5B7"/>
<stop offset="1" stop-color="#AA771C"/>
</linearGradient>
<linearGradient id="paint1_linear_453_516" x1="3.5" y1="48.75" x2="118.5" y2="48.75" gradientUnits="userSpaceOnUse">
<stop stop-color="#BF953F"/>
<stop offset="0.213542" stop-color="#FCF6BA"/>
<stop offset="0.4375" stop-color="#B38728"/>
<stop offset="0.739583" stop-color="#FBF5B7"/>
<stop offset="1" stop-color="#AA771C"/>
</linearGradient>
<linearGradient id="paint2_linear_453_516" x1="657.5" y1="48.75" x2="542.5" y2="48.75" gradientUnits="userSpaceOnUse">
<stop stop-color="#BF953F"/>
<stop offset="0.213542" stop-color="#FCF6BA"/>
<stop offset="0.4375" stop-color="#B38728"/>
<stop offset="0.739583" stop-color="#FBF5B7"/>
<stop offset="1" stop-color="#AA771C"/>
</linearGradient>
</defs>
</svg>
