<svg width="195" height="63" viewBox="0 0 195 63" fill="none" xmlns="http://www.w3.org/2000/svg">
<g clip-path="url(#clip0_154_33522)">
<path d="M61.161 3.43716C59.492 6.85653 55.2119 16.5091 53.9108 29.3852C53.3455 33.7306 54.0454 36.3485 52.3047 37.3459L52.4752 37.8801C55.2119 36.8561 58.0205 35.9924 60.8649 35.2266L60.7303 34.6032C59.5279 34.532 59.7971 29.955 59.7971 27.8981C59.7612 25.7076 60.0932 22.7245 63.7093 21.1662C64.3105 20.8991 65.0104 20.6676 65.8538 20.4984V30.0886C65.8538 32.1812 65.6475 32.9737 64.5797 33.5703L64.7143 34.2649C67.451 33.597 70.2595 33.0004 73.1668 32.5018L73.0681 31.8072C71.9285 31.8339 71.767 30.6407 71.8029 28.9488V8.97582C71.8657 4.63038 71.1299 1.87886 74.5755 1.04183V0.320557H59.0254L59.0613 1.05073C60.5688 1.1843 61.5289 2.18162 61.17 3.43716H61.161ZM65.8449 6.65172V15.5118C64.6873 15.6454 62.6595 16.2865 61.5289 16.9098C62.5069 13.5706 64.0233 9.7149 65.8449 6.65172Z" fill="#E2001A"/>
<path d="M116.929 4.23858V27.9604C116.929 28.8865 116.633 30.516 115.663 30.7832L115.565 31.4777C121.684 32.2435 127.265 33.2676 132.784 34.7279L132.981 34.0601C132.847 32.6977 132.416 31.2729 132.21 29.9105C131.644 30.7386 129.5 30.7743 127.894 30.3736C124.017 29.3495 123.048 28.4858 122.68 26.6603V11.0061C124.215 10.08 126.395 10.08 129.966 12.1637V6.91886H122.743V4.26529C124.852 3.43716 127.992 3.73102 131.267 4.76395C131.698 3.47278 132.434 2.3419 132.874 1.05073V0.320557H114.883V1.01511C116.588 1.64734 116.794 2.47547 116.92 4.23858H116.929Z" fill="#E2001A"/>
<path d="M98.347 4.23858V26.7939C98.347 28.3789 98.1766 29.3495 97.2703 29.7146V30.4092C102.959 30.3736 108.675 30.6763 114.355 31.3353L114.453 30.6407L113.215 26.7316C111.25 28.9221 104.188 27.9248 104.09 24.5411V11.0061C105.624 10.08 107.796 10.08 111.376 12.1637V6.91886H104.153V4.23858C106.889 3.3036 109.77 3.97144 112.641 4.76395C113.108 3.47278 113.816 2.3419 114.283 1.05073V0.320557H96.3281V1.05073C98.033 1.64734 98.2394 2.47547 98.3381 4.23858H98.347Z" fill="#E2001A"/>
<path d="M135.447 4.23858V31.4421C135.447 32.7956 135.25 34.2916 133.805 34.2916L133.572 34.9505C139.333 36.491 145.264 38.5836 150.657 41.1214C152.299 41.6557 152.236 38.6014 152.101 37.1767C151.024 19.0914 147.722 17.3372 144.304 12.4219C149.661 6.98119 149.293 2.36861 147.74 0.872642C146.879 0.160274 145.569 0.311652 144.241 0.311652H133.438V1.04183C135.412 1.54049 135.447 2.57342 135.447 4.22967V4.23858ZM141.235 4.56805C141.45 3.08989 144.447 2.90289 145.013 4.56805C145.228 7.67575 143.613 10.5074 141.235 12.2349V4.55914V4.56805ZM141.235 15.2179C141.836 14.8261 142.069 14.5234 142.536 14.1227C146.314 18.8332 146.861 25.013 147.148 31.0414C147.22 32.3415 147.687 34.5943 146.107 34.9505C144.851 34.8793 141.441 34.3183 141.226 33.0628V15.2179H141.235Z" fill="#E2001A"/>
<path d="M153.668 4.23858V37.8089C153.668 40.0707 153.301 41.2639 152.098 41.0324L151.793 41.6557C156.612 44.0065 161.951 46.856 166.042 50.3822C168.779 51.9405 170.69 49.1266 170.753 43.9085C170.753 34.7101 167.9 27.6933 162.767 20.3203C160.963 17.729 159.519 15.9392 159.42 14.9419C159.42 7.7737 159.42 10.0266 159.456 4.32762C159.627 2.33299 160.928 1.44254 162.767 1.04183C162.83 1.04183 162.866 1.04183 162.938 1.00621V0.320557C148.823 0.320557 163.144 0.320557 149.029 0.320557C149.029 1.26444 148.886 0.480839 149.999 4.76395C150.698 3.97144 152.502 3.57073 153.677 4.23858H153.668ZM159.483 19.4031C160.82 21.4244 161.924 23.517 162.758 25.574C166.132 33.7039 166.096 41.3351 166.033 42.9914C166.033 43.9887 165.728 44.2202 165.064 44.3182C163.951 44.3182 160.811 42.6441 159.483 40.8008V19.4031Z" fill="#E2001A"/>
<path d="M74.1016 31.638L74.2362 32.3415C77.3408 31.8072 80.5531 31.3798 83.8641 31.077L83.8013 30.3825C82.8322 30.0886 83.1014 28.5303 83.1014 27.4974C83.1373 21.2909 83.6757 17.177 85.3088 13.063C86.7803 17.1057 87.3456 21.1217 87.5161 27.1323C87.5161 28.1296 87.6507 29.7146 86.7444 30.1153L86.7803 30.8099C89.7593 30.5784 92.8012 30.4448 95.8789 30.4092V29.6879C94.7124 29.4831 94.6047 28.1296 94.1381 26.8295C91.9667 17.7736 91.536 13.2589 89.4274 9.14501C93.3306 4.04268 91.518 1.70077 95.4123 1.05073V0.320557H86.6816V1.05073C87.22 1.08635 87.5879 1.31787 87.6597 2.18162C87.5969 4.70162 87.22 5.86812 85.3177 7.52437C83.4155 5.85921 83.0476 4.70162 82.9758 2.18162C83.0117 1.25554 83.5142 1.1843 83.9449 1.02402V0.320557H75.1873V1.01511C76.5243 1.28225 77.6907 1.97681 78.3637 3.80225C79.0277 5.85921 80.0327 7.65794 81.1992 9.14501C79.4225 12.9918 78.7585 17.9695 76.1115 28.3611C75.6449 29.9818 75.6449 31.0147 74.1105 31.6469L74.1016 31.638Z" fill="#E2001A"/>
<path d="M29.6185 56.0366C29.448 55.4667 29.3673 54.9146 29.3673 54.3803C29.3673 50.6671 33.2705 48.0314 37.0122 48.0314C39.2196 48.0314 41.4628 48.6903 42.9613 50.4178C57.6321 42.5016 73.0386 37.1143 97.436 37.1143C114 37.1143 130.609 40.1241 143.763 46.2415C157.339 52.9289 166.707 62.1986 178.273 62.1986C189.839 62.1986 194.936 53.7392 194.99 45.3689C194.855 35.7965 187.479 29.0913 180.31 29.0913C177.34 29.0913 172.863 30.5784 172.863 33.4367C172.863 36.6691 177.825 40.8899 177.825 43.4811C177.825 44.8257 177.179 45.7162 176.604 46.2415C175.788 47.0341 174.648 48.254 174.648 49.3314C174.648 50.1774 175.483 50.8897 176.317 50.8897C176.856 50.8897 177.537 50.6315 178.085 49.652C179.287 47.7642 179.655 46.2059 179.655 44.8613C179.655 42.7242 178.722 41.1303 178.722 39.6343C178.722 37.0787 181.584 36.0458 183.496 36.0458C188.754 36.0458 190.719 43.7572 190.719 46.3217C190.719 53.4543 184.133 58.5388 176.82 58.5388C168.861 58.5388 158.461 48.8773 144.212 42.7153C130.286 36.678 114.251 33.8285 99.9843 33.8285C81.0873 33.8285 65.591 36.2951 48.6591 43.9085C46.6043 44.6921 44.3341 45.2977 42.2793 45.2977C39.0401 45.2977 36.3393 43.8017 35.8457 39.198C35.8547 36.5177 35.8727 33.0093 35.8727 29.3406C35.8727 23.8732 35.8457 18.0496 35.747 14.0871C36.7161 17.4708 39.3542 26.0281 40.2963 29.4475C41.8307 24.3006 43.069 19.1627 45.1148 14.0514V33.5347C44.8815 36.7849 43.374 39.7679 42.2345 41.7269L42.405 42.3591C45.3122 40.7652 48.5604 39.3405 52.0688 38.0137L51.8983 37.4794C51.1984 37.2123 50.7229 36.8205 50.7229 34.2916V4.26529C50.7947 2.3419 52.6341 1.47815 55.0389 1.01511V0.320557H42.9344V1.01511C44.1996 1.3713 44.6123 1.86105 44.6123 2.54671C44.6123 3.01865 44.4149 3.57964 44.1726 4.23858C42.8716 7.95179 41.5346 11.7006 40.1887 15.4495C39.1837 11.7362 38.2146 8.02303 37.2186 4.30091C37.0122 3.55292 36.9046 3.01865 36.9046 2.61794C36.9046 1.78091 37.3622 1.49596 38.3582 1.05073V0.320557H25.2846V1.05073C27.0433 1.46034 28.9814 2.3508 29.9326 3.66868C30.1479 3.97144 30.2735 4.31872 30.3094 4.68381C30.3812 5.6366 30.4261 6.87434 30.4261 8.33469C30.4261 22.7245 26.5318 58.895 12.2738 58.895C7.904 58.895 3.41753 55.0571 3.41753 49.5095C3.41753 43.6592 7.77838 39.7412 10.9907 39.0644C12.4892 38.7439 13.9787 39.8748 13.9787 41.3974C13.9787 43.6592 12.6327 47.0519 11.7534 50.961C11.6547 51.3617 11.6098 51.7802 11.6098 52.1898C11.6098 53.8728 12.4084 55.4667 13.9338 55.4667C14.9478 55.4667 15.6477 54.977 15.6477 53.944C15.6477 53.0625 15.1003 51.985 14.0594 51.3172C13.7992 50.8096 13.6736 50.2753 13.6736 49.7232C13.6736 48.067 14.8311 46.2148 17.1372 44.1757C20.4213 41.5666 22.1441 38.2007 22.1441 35.7252C22.1441 33.7306 21.0314 32.3059 18.7164 32.3059C14.5978 32.3059 0.0078125 38.2986 0.0078125 50.1239C0.0078125 57.6394 5.86714 62.9822 13.0904 62.9822C19.0035 62.9822 25.0064 59.7676 29.6275 56.0277L29.6185 56.0366Z" fill="#E2001A"/>
<path d="M169.465 1.59393H170.282C170.479 1.59393 170.641 1.62955 170.757 1.70969C170.865 1.79873 170.928 1.9323 170.928 2.1193V2.22615L170.901 2.34191C170.865 2.43096 170.811 2.52001 170.721 2.58234C170.641 2.65357 170.515 2.68919 170.344 2.68919H169.456V1.59393H169.465ZM169.07 4.38107H169.465V3.04538H170.309C170.569 3.04538 170.73 3.11661 170.784 3.25909C170.829 3.40156 170.856 3.57965 170.856 3.75774V3.83788L170.874 4.14955C170.892 4.22078 170.91 4.29202 170.937 4.33654V4.36326L170.964 4.38107H171.376L171.349 4.35435L171.331 4.32764C171.296 4.28311 171.278 4.22078 171.278 4.14955C171.26 4.08721 171.26 3.98926 171.26 3.84679V3.72213C171.26 3.63308 171.26 3.54403 171.242 3.45499C171.233 3.35704 171.215 3.2769 171.188 3.20566C171.152 3.05428 171.035 2.93852 170.829 2.86728C170.973 2.82276 171.098 2.73372 171.188 2.60015C171.287 2.45767 171.331 2.28849 171.331 2.08368C171.331 1.83435 171.278 1.64735 171.161 1.52269C171.053 1.40693 170.928 1.32679 170.802 1.29117C170.641 1.22884 170.551 1.24665 170.371 1.24665H169.079V4.38997L169.07 4.38107Z" fill="#E2001A"/>
<path d="M172.765 2.80495C172.765 4.20297 171.617 5.33385 170.217 5.33385C168.817 5.33385 167.678 4.20297 167.678 2.80495C167.678 1.40693 168.817 0.276042 170.217 0.276042C171.617 0.276042 172.765 1.40693 172.765 2.80495ZM170.217 0C168.665 0 167.391 1.25555 167.391 2.80495C167.391 4.35435 168.665 5.60989 170.217 5.60989C171.769 5.60989 173.044 4.34544 173.044 2.80495C173.044 1.26445 171.778 0 170.217 0Z" fill="#E2001A"/>
</g>
<defs>
<clipPath id="clip0_154_33522">
<rect width="195" height="63" fill="white"/>
</clipPath>
</defs>
</svg>
