<svg width="68" height="141" viewBox="0 0 68 141" fill="none" xmlns="http://www.w3.org/2000/svg">
<g clip-path="url(#clip0_99_661)">
<path d="M8.70926 0.000101011C11.2124 0.236134 13.8044 0.118118 16.1891 0.781959C19.5958 1.74084 23.0617 2.90625 26.1425 4.60274C45.4568 15.3127 59.6463 31.0236 65.4969 52.1043C71.4808 73.6128 66.7262 93.9558 51.2481 110.891C43.5017 119.374 34.2296 125.983 23.7874 130.924C21.9064 131.824 20.0401 132.754 16.9593 134.273C21.2695 136.176 24.5576 137.622 27.8458 139.068C27.7421 139.54 27.6385 140.012 27.5348 140.469C26.5128 140.661 25.476 141.074 24.4836 140.985C19.2847 140.543 14.0859 140.012 8.88699 139.436C5.55438 139.053 1.96998 138.64 0.518442 135.085C-1.03677 131.249 1.06648 128.033 3.68813 125.555C7.28734 122.147 11.2272 119.064 15.2115 116.113C16.041 115.509 17.7443 116.084 19.0329 116.113C18.9885 117.397 19.4625 119.064 18.8256 119.905C16.8556 122.531 14.471 124.847 12.19 127.325C12.6047 127.502 12.8713 127.738 13.0342 127.679C45.6345 116.217 65.0081 92.5987 61.6903 58.9935C61.5274 57.356 61.1867 55.7038 60.6831 54.1401C53.4402 31.5547 39.2804 14.8849 17.7147 4.6765C14.8561 3.31931 11.5975 2.78824 8.5167 1.85886C8.57595 1.23927 8.6352 0.604935 8.70926 -0.014651L8.70926 0.000101011Z" fill="white"/>
</g>
<defs>
<clipPath id="clip0_99_661">
<rect width="141" height="68" fill="white" transform="translate(68) rotate(90)"/>
</clipPath>
</defs>
</svg>
