<svg width="221" height="172" viewBox="0 0 221 172" fill="none" xmlns="http://www.w3.org/2000/svg">
<path fill-rule="evenodd" clip-rule="evenodd" d="M90 9C80.0595 9 72 17.0595 72 27V69C72 69.5775 72.027 70.1475 72.081 70.71L78.8835 59.826C86.4255 47.76 103.531 46.5285 112.723 57.3915L120.476 66.5535C127.332 56.196 143.126 56.0625 150 66.8115V48C150 47.2043 150.316 46.4413 150.879 45.8787C151.441 45.3161 152.204 45 153 45C153.796 45 154.559 45.3161 155.121 45.8787C155.684 46.4413 156 47.2043 156 48V69C156 82.2555 145.256 93 132 93H90C76.7445 93 66 82.2555 66 69V27C66 13.7445 76.7445 3 90 3H111C111.796 3 112.559 3.31607 113.121 3.87868C113.684 4.44129 114 5.20435 114 6C114 6.79565 113.684 7.55871 113.121 8.12132C112.559 8.68393 111.796 9 111 9H90ZM148.269 76.71L145.683 71.3655C141.363 62.4435 128.721 62.673 124.604 71.4315L137.144 86.2545C139.562 85.5305 141.802 84.3071 143.719 82.6633C145.635 81.0195 147.185 78.9904 148.269 76.71ZM90 87C86.8706 87.0014 83.7949 86.1865 81.0767 84.6358C78.3585 83.0851 76.0918 80.8521 74.5005 78.1575L74.544 78.09L83.9715 63.006C89.358 54.387 101.577 53.508 108.142 61.266L129.915 87H90Z" fill="#E5C796"/>
<path d="M152.007 23.2305C151.714 23.494 151.372 23.6973 151.001 23.8286C150.629 23.9599 150.235 24.0168 149.842 23.9959C149.448 23.975 149.063 23.8768 148.707 23.7068C148.352 23.5369 148.033 23.2986 147.77 23.0055L139.5 13.8195V39C139.5 39.7957 139.184 40.5587 138.621 41.1213C138.059 41.6839 137.296 42 136.5 42C135.704 42 134.941 41.6839 134.379 41.1213C133.816 40.5587 133.5 39.7957 133.5 39V13.818L125.231 23.007C124.698 23.5986 123.953 23.9545 123.158 23.9964C122.363 24.0383 121.585 23.7628 120.993 23.2305C120.401 22.6982 120.046 21.9527 120.004 21.158C119.962 20.3634 120.237 19.5846 120.77 18.993L129.81 8.94901C130.654 8.01116 131.686 7.26124 132.838 6.74791C133.991 6.23457 135.238 5.9693 136.5 5.9693C137.762 5.9693 139.009 6.23457 140.162 6.74791C141.314 7.26124 142.346 8.01116 143.19 8.94901L152.231 18.993C152.494 19.286 152.697 19.628 152.829 19.9995C152.96 20.3711 153.017 20.7649 152.996 21.1584C152.975 21.5519 152.877 21.9374 152.707 22.293C152.537 22.6485 152.3 22.9671 152.007 23.2305Z" fill="#E5C796"/>
<path d="M9.69707 155.14C12.4271 155.89 13.5071 157.87 13.5071 160.39C13.5071 164.17 11.0471 166.39 7.59707 166.39C3.93707 166.39 1.65707 163.9 1.47707 160.39H3.36707C3.54707 162.91 5.01707 164.59 7.53707 164.59C9.96707 164.59 11.6471 163 11.6471 160.39C11.6471 157.54 9.66707 156.07 7.14707 156.07H5.43707V154.33H6.93707C9.36707 154.33 11.1971 153.13 11.1971 150.28C11.1971 147.82 9.84707 146.41 7.47707 146.41C4.98707 146.41 3.84707 147.97 3.63707 150.67H1.77707C1.98707 146.95 3.96707 144.61 7.50707 144.61C10.8371 144.61 13.0571 146.71 13.0571 150.43C13.0571 152.83 12.1271 154.42 9.69707 155.14ZM20.7525 149.89C23.7525 149.89 25.5825 151.9 25.5825 155.11V166H24.0525L23.9025 164.53C23.1825 165.58 21.9825 166.36 20.2725 166.36C17.3925 166.36 15.2925 164.59 15.2925 161.53C15.2925 158.5 17.2425 156.82 20.6925 156.82H23.8125V155.14C23.8125 152.83 22.7325 151.6 20.6925 151.6C18.8925 151.6 17.6625 152.62 17.5425 154.36H15.7725C15.8925 151.66 17.8425 149.89 20.7525 149.89ZM20.5425 164.62C22.5525 164.62 23.8125 163.36 23.8125 161.56V158.47H20.6325C18.3225 158.47 17.0925 159.55 17.0925 161.56C17.0925 163.63 18.5025 164.62 20.5425 164.62ZM36.7805 150.25V151.96H30.7205V166H28.9505V150.25H36.7805ZM44.0044 149.89C46.8544 149.89 48.8944 151.93 48.8944 155.92V160.45C48.8944 164.35 47.0344 166.36 44.0044 166.36C42.5944 166.36 41.2144 165.79 40.3444 164.59V171.4H38.6044V150.25H40.0444L40.2844 151.72C41.1244 150.55 42.4744 149.89 44.0044 149.89ZM47.0944 160.45V155.92C47.0944 152.83 45.8044 151.54 43.6144 151.54C41.8144 151.54 40.3444 152.92 40.3444 155.86V160.45C40.3444 162.97 41.6344 164.71 43.6144 164.71C45.9244 164.71 47.0944 163.45 47.0944 160.45ZM58.7473 150.25H60.6073L55.2973 167.92C54.6073 170.26 53.7073 171.73 51.5473 171.73H50.5273V169.99H51.3073C52.6873 169.99 53.1373 168.94 53.5273 167.65L54.5173 164.41L49.4773 150.25H51.3673L55.2973 161.74L58.7473 150.25ZM68.5245 157.75C69.9945 158.29 71.2245 159.67 71.2245 161.5C71.2245 164.35 69.0345 166.3 66.0345 166.3C62.7645 166.3 60.7845 164.29 60.6645 161.59H62.4345C62.5545 163.33 63.7845 164.56 66.0345 164.56C68.1045 164.56 69.4245 163.42 69.4245 161.41C69.4245 159.76 68.1645 158.68 65.9445 158.68H63.6645V157.03H65.8245C67.6845 157.03 68.9445 156.16 68.9445 154.45C68.9445 152.89 67.8645 151.75 65.9745 151.75C63.9645 151.75 62.9445 152.68 62.7945 154.81H61.0245C61.1745 151.75 62.8845 150.04 65.9745 150.04C68.7045 150.04 70.7145 151.99 70.7145 154.3C70.7145 156.1 69.7245 157.24 68.5245 157.75ZM73.5134 166V150.25H75.2834V159.25C75.2834 160.42 75.3134 161.62 75.2234 162.79L75.2834 162.85C75.5534 162.22 76.0334 161.14 76.3334 160.51L81.3734 150.25H83.2034V166H81.4334V157.51C81.4334 155.86 81.4934 154.57 81.5534 153.31L81.4934 153.28C81.2834 153.97 80.7434 155.08 80.2334 156.13L75.3434 166H73.5134ZM94.5157 150.25V151.9H90.6157V166H88.8457V151.9H84.9457V150.25H94.5157ZM100.899 155.8C103.749 155.8 106.059 157.9 106.059 160.87C106.059 163.87 103.749 166 100.899 166H96.2489V150.25H98.0189V155.8H100.899ZM100.899 164.29C102.789 164.29 104.259 162.94 104.259 160.87C104.259 158.83 102.789 157.51 100.899 157.51H98.0189V164.29H100.899ZM123.001 150.01C126.301 150.01 128.971 152.29 128.971 156.25V160.15C128.971 164.02 126.271 166.24 123.001 166.24H122.221V171.4H120.481V166.24H119.701C116.431 166.24 113.731 164.02 113.731 160.15V156.25C113.731 152.29 116.401 150.01 119.701 150.01H120.481V144.4H122.221V150.01H123.001ZM119.701 164.5H120.481V151.75H119.701C117.391 151.75 115.531 153.22 115.531 156.25V160.15C115.531 163.06 117.421 164.5 119.701 164.5ZM127.171 160.15V156.25C127.171 153.22 125.311 151.75 123.001 151.75H122.221V164.5H123.001C125.281 164.5 127.171 163.06 127.171 160.15ZM136.809 166.36C133.659 166.36 131.559 164.35 131.559 160.66V155.59C131.559 151.9 133.659 149.89 136.809 149.89C139.959 149.89 142.059 151.9 142.059 155.59V160.66C142.059 164.35 139.959 166.36 136.809 166.36ZM136.809 164.62C138.939 164.62 140.259 163.39 140.259 160.66V155.59C140.259 152.86 138.939 151.63 136.809 151.63C134.679 151.63 133.359 152.86 133.359 155.59V160.66C133.359 163.39 134.679 164.62 136.809 164.62ZM152.131 150.25V151.9H148.231V166H146.461V151.9H142.561V150.25H152.131ZM158.05 166.36C154.9 166.36 152.8 164.35 152.8 160.66V155.59C152.8 151.9 154.9 149.89 158.05 149.89C161.2 149.89 163.3 151.9 163.3 155.59V160.66C163.3 164.35 161.2 166.36 158.05 166.36ZM158.05 164.62C160.18 164.62 161.5 163.39 161.5 160.66V155.59C161.5 152.86 160.18 151.63 158.05 151.63C155.92 151.63 154.6 152.86 154.6 155.59V160.66C154.6 163.39 155.92 164.62 158.05 164.62ZM179.547 150.25H181.317V166H179.547V160.06C178.527 160.6 177.477 160.69 176.397 160.69C173.757 160.69 171.537 158.65 171.537 154.51V150.25H173.307V154.51C173.307 157.69 174.717 158.95 176.547 158.95C177.567 158.95 178.557 158.89 179.547 158.29V150.25ZM193.072 161.17H194.842C194.602 164.47 192.652 166.3 189.352 166.3C186.292 166.3 184.282 164.29 184.282 160.69V155.5C184.282 151.9 186.322 149.89 189.382 149.89C192.532 149.89 194.632 151.9 194.632 155.5V158.98H186.082V160.69C186.082 163.33 187.342 164.56 189.412 164.56C191.692 164.56 192.832 163.48 193.072 161.17ZM189.412 151.63C187.342 151.63 186.082 152.86 186.082 155.5V157.33H192.862V155.5C192.862 152.86 191.572 151.63 189.412 151.63ZM206.067 166L200.577 158.47L199.347 159.97V166H197.577V150.25H199.347V157.39C200.127 156.46 200.907 155.5 201.687 154.54L205.197 150.25H207.477L201.747 157.09L208.257 166H206.067ZM213.785 149.89C216.785 149.89 218.615 151.9 218.615 155.11V166H217.085L216.935 164.53C216.215 165.58 215.015 166.36 213.305 166.36C210.425 166.36 208.325 164.59 208.325 161.53C208.325 158.5 210.275 156.82 213.725 156.82H216.845V155.14C216.845 152.83 215.765 151.6 213.725 151.6C211.925 151.6 210.695 152.62 210.575 154.36H208.805C208.925 151.66 210.875 149.89 213.785 149.89ZM213.575 164.62C215.585 164.62 216.845 163.36 216.845 161.56V158.47H213.665C211.355 158.47 210.125 159.55 210.125 161.56C210.125 163.63 211.535 164.62 213.575 164.62Z" fill="#4A381D"/>
</svg>
