<svg width="143" height="112" viewBox="0 0 143 112" fill="none" xmlns="http://www.w3.org/2000/svg">
<path fill-rule="evenodd" clip-rule="evenodd" d="M58.2355 5.86047C51.8034 5.86047 46.5884 11.1085 46.5884 17.5814V44.9302C46.5884 45.3063 46.6059 45.6774 46.6408 46.0437L51.0424 38.9565C55.9226 31.0995 66.9908 30.2976 72.9386 37.3712L77.9552 43.3372C82.3915 36.5927 92.6111 36.5058 97.059 43.5052V31.2558C97.059 30.7377 97.2635 30.2409 97.6278 29.8745C97.9914 29.5082 98.4851 29.3023 99.0002 29.3023C99.5152 29.3023 100.009 29.5082 100.373 29.8745C100.737 30.2409 100.941 30.7377 100.941 31.2558V44.9302C100.941 53.5617 93.9894 60.5581 85.4119 60.5581H58.2355C49.6584 60.5581 42.7061 53.5617 42.7061 44.9302V17.5814C42.7061 8.94991 49.6584 1.95349 58.2355 1.95349H71.8237C72.3388 1.95349 72.8325 2.1593 73.1961 2.52565C73.5604 2.89201 73.7649 3.38888 73.7649 3.90698C73.7649 4.42508 73.5604 4.92195 73.1961 5.2883C72.8325 5.65465 72.3388 5.86047 71.8237 5.86047H58.2355ZM95.9389 49.9507L94.2656 46.4706C91.4703 40.6609 83.2902 40.8103 80.6263 46.5135L88.7404 56.1657C90.305 55.6943 91.7544 54.8977 92.9948 53.8273C94.2346 52.7569 95.2375 51.4356 95.9389 49.9507ZM58.2355 56.6512C56.2106 56.6521 54.2204 56.1214 52.4616 55.1117C50.7027 54.1019 49.236 52.6479 48.2064 50.8933L48.2345 50.8493L54.3347 41.0272C57.8201 35.4148 65.7265 34.8424 69.9744 39.8941L84.0628 56.6512H58.2355Z" fill="#E5C796"/>
<path d="M98.3575 15.1268C98.1679 15.2984 97.9466 15.4308 97.7066 15.5163C97.4659 15.6018 97.2109 15.6388 96.9566 15.6252C96.7017 15.6116 96.4526 15.5477 96.2222 15.437C95.9925 15.3263 95.7861 15.1712 95.6159 14.9803L90.2647 8.99872V25.3953C90.2647 25.9135 90.0603 26.4103 89.696 26.7766C89.3323 27.143 88.8386 27.3488 88.3236 27.3488C87.8085 27.3488 87.3148 27.143 86.9512 26.7766C86.5869 26.4103 86.3824 25.9135 86.3824 25.3953V8.99774L81.0319 14.9813C80.687 15.3665 80.2049 15.5983 79.6905 15.6255C79.1761 15.6528 78.6727 15.4734 78.2896 15.1268C77.9066 14.7802 77.6769 14.2948 77.6497 13.7773C77.6225 13.2599 77.8004 12.7527 78.1453 12.3675L83.9947 5.82724C84.5409 5.21655 85.2086 4.72823 85.954 4.39396C86.7001 4.0597 87.507 3.88696 88.3236 3.88696C89.1402 3.88696 89.947 4.0597 90.6931 4.39396C91.4385 4.72823 92.1063 5.21655 92.6524 5.82724L98.5025 12.3675C98.6726 12.5583 98.804 12.781 98.8894 13.0229C98.9742 13.2649 99.011 13.5213 98.9975 13.7775C98.9839 14.0338 98.9205 14.2848 98.8105 14.5163C98.7005 14.7478 98.5471 14.9553 98.3575 15.1268Z" fill="#E5C796"/>
<path d="M6.27439 101.021C8.04088 101.51 8.7397 102.799 8.7397 104.44C8.7397 106.901 7.14794 108.347 4.91557 108.347C2.54733 108.347 1.07204 106.726 0.955566 104.44H2.17851C2.29498 106.081 3.24615 107.175 4.87674 107.175C6.4491 107.175 7.53617 106.14 7.53617 104.44C7.53617 102.584 6.25498 101.627 4.62439 101.627H3.51792V100.494H4.48851C6.06086 100.494 7.245 99.7125 7.245 97.8567C7.245 96.2549 6.37145 95.3367 4.83792 95.3367C3.22674 95.3367 2.4891 96.3525 2.35321 98.1107H1.14968C1.28557 95.6884 2.56674 94.1646 4.85733 94.1646C7.01206 94.1646 8.44853 95.5321 8.44853 97.9544C8.44853 99.5172 7.84676 100.553 6.27439 101.021ZM13.4279 97.6028C15.3691 97.6028 16.5532 98.9116 16.5532 101.002V108.093H15.5632L15.4661 107.136C15.0003 107.82 14.2238 108.327 13.1173 108.327C11.2538 108.327 9.89496 107.175 9.89496 105.182C9.89496 103.209 11.1567 102.115 13.3891 102.115H15.4079V101.021C15.4079 99.5172 14.7091 98.7163 13.3891 98.7163C12.2244 98.7163 11.4285 99.3805 11.3508 100.513H10.2056C10.2832 98.7553 11.545 97.6028 13.4279 97.6028ZM13.292 107.194C14.5926 107.194 15.4079 106.374 15.4079 105.202V103.19H13.3503C11.8556 103.19 11.0597 103.893 11.0597 105.202C11.0597 106.55 11.972 107.194 13.292 107.194ZM23.799 97.8372V98.9507H19.8778V108.093H18.7325V97.8372H23.799ZM28.4733 97.6028C30.3174 97.6028 31.6374 98.9312 31.6374 101.529V104.479C31.6374 107.019 30.4338 108.327 28.4733 108.327C27.5609 108.327 26.668 107.956 26.105 107.175V111.609H24.9791V97.8372H25.9109L26.0662 98.7944C26.6097 98.0325 27.4833 97.6028 28.4733 97.6028ZM30.4727 104.479V101.529C30.4727 99.5172 29.638 98.6772 28.2209 98.6772C27.0562 98.6772 26.105 99.5758 26.105 101.49V104.479C26.105 106.12 26.9397 107.253 28.2209 107.253C29.7156 107.253 30.4727 106.433 30.4727 104.479ZM38.0128 97.8372H39.2163L35.7804 109.343C35.334 110.867 34.7516 111.824 33.354 111.824H32.694V110.691H33.1987C34.0916 110.691 34.3828 110.007 34.6351 109.167L35.2757 107.058L32.0145 97.8372H33.2375L35.7804 105.319L38.0128 97.8372ZM44.3392 102.721C45.2904 103.073 46.0863 103.971 46.0863 105.163C46.0863 107.019 44.6692 108.288 42.728 108.288C40.6121 108.288 39.331 106.98 39.2533 105.221H40.3986C40.4763 106.354 41.2721 107.155 42.728 107.155C44.0674 107.155 44.9215 106.413 44.9215 105.104C44.9215 104.03 44.1063 103.326 42.6698 103.326H41.1945V102.252H42.5921C43.7957 102.252 44.611 101.686 44.611 100.572C44.611 99.5563 43.9121 98.8139 42.6892 98.8139C41.3886 98.8139 40.7286 99.4195 40.6316 100.807H39.4863C39.5833 98.8139 40.6898 97.7005 42.6892 97.7005C44.4557 97.7005 45.7563 98.9702 45.7563 100.474C45.7563 101.647 45.1157 102.389 44.3392 102.721ZM47.5673 108.093V97.8372H48.7126V103.698C48.7126 104.46 48.732 105.241 48.6738 106.003L48.7126 106.042C48.8873 105.632 49.1979 104.928 49.392 104.518L52.6532 97.8372H53.8373V108.093H52.692V102.565C52.692 101.49 52.7308 100.65 52.7697 99.8298L52.7308 99.8102C52.595 100.26 52.2455 100.982 51.9155 101.666L48.7514 108.093H47.5673ZM61.157 97.8372V98.9116H58.6335V108.093H57.4882V98.9116H54.9647V97.8372H61.157ZM65.2874 101.451C67.1315 101.451 68.6262 102.819 68.6262 104.753C68.6262 106.706 67.1315 108.093 65.2874 108.093H62.2785V97.8372H63.4238V101.451H65.2874ZM65.2874 106.98C66.5103 106.98 67.4615 106.1 67.4615 104.753C67.4615 103.424 66.5103 102.565 65.2874 102.565H63.4238V106.98H65.2874ZM79.5887 97.6809C81.724 97.6809 83.4516 99.1656 83.4516 101.744V104.284C83.4516 106.804 81.7046 108.249 79.5887 108.249H79.084V111.609H77.9581V108.249H77.4534C75.3375 108.249 73.5905 106.804 73.5905 104.284V101.744C73.5905 99.1656 75.3181 97.6809 77.4534 97.6809H77.9581V94.0279H79.084V97.6809H79.5887ZM77.4534 107.116H77.9581V98.8139H77.4534C75.9587 98.8139 74.7552 99.7712 74.7552 101.744V104.284C74.7552 106.179 75.9781 107.116 77.4534 107.116ZM82.2869 104.284V101.744C82.2869 99.7712 81.0834 98.8139 79.5887 98.8139H79.084V107.116H79.5887C81.064 107.116 82.2869 106.179 82.2869 104.284ZM88.5233 108.327C86.4851 108.327 85.1262 107.019 85.1262 104.616V101.314C85.1262 98.9116 86.4851 97.6028 88.5233 97.6028C90.5615 97.6028 91.9204 98.9116 91.9204 101.314V104.616C91.9204 107.019 90.5615 108.327 88.5233 108.327ZM88.5233 107.194C89.9015 107.194 90.7556 106.393 90.7556 104.616V101.314C90.7556 99.5367 89.9015 98.7358 88.5233 98.7358C87.1451 98.7358 86.2909 99.5367 86.2909 101.314V104.616C86.2909 106.393 87.1451 107.194 88.5233 107.194ZM98.4375 97.8372V98.9116H95.914V108.093H94.7687V98.9116H92.2452V97.8372H98.4375ZM102.267 108.327C100.229 108.327 98.8704 107.019 98.8704 104.616V101.314C98.8704 98.9116 100.229 97.6028 102.267 97.6028C104.306 97.6028 105.665 98.9116 105.665 101.314V104.616C105.665 107.019 104.306 108.327 102.267 108.327ZM102.267 107.194C103.646 107.194 104.5 106.393 104.5 104.616V101.314C104.5 99.5367 103.646 98.7358 102.267 98.7358C100.889 98.7358 100.035 99.5367 100.035 101.314V104.616C100.035 106.393 100.889 107.194 102.267 107.194ZM116.177 97.8372H117.323V108.093H116.177V104.225C115.517 104.577 114.838 104.635 114.139 104.635C112.431 104.635 110.994 103.307 110.994 100.611V97.8372H112.14V100.611C112.14 102.682 113.052 103.502 114.236 103.502C114.896 103.502 115.537 103.463 116.177 103.073V97.8372ZM124.929 104.948H126.074C125.919 107.097 124.657 108.288 122.522 108.288C120.542 108.288 119.241 106.98 119.241 104.635V101.256C119.241 98.9116 120.561 97.6028 122.541 97.6028C124.579 97.6028 125.938 98.9116 125.938 101.256V103.522H120.406V104.635C120.406 106.354 121.221 107.155 122.561 107.155C124.036 107.155 124.773 106.452 124.929 104.948ZM122.561 98.7358C121.221 98.7358 120.406 99.5367 120.406 101.256V102.447H124.793V101.256C124.793 99.5367 123.958 98.7358 122.561 98.7358ZM133.337 108.093L129.785 103.19L128.989 104.167V108.093H127.844V97.8372H128.989V102.487C129.494 101.881 129.998 101.256 130.503 100.631L132.774 97.8372H134.25L130.542 102.291L134.754 108.093H133.337ZM138.331 97.6028C140.272 97.6028 141.457 98.9116 141.457 101.002V108.093H140.467L140.37 107.136C139.904 107.82 139.127 108.327 138.021 108.327C136.157 108.327 134.798 107.175 134.798 105.182C134.798 103.209 136.06 102.115 138.292 102.115H140.311V101.021C140.311 99.5172 139.612 98.7163 138.292 98.7163C137.128 98.7163 136.332 99.3805 136.254 100.513H135.109C135.187 98.7553 136.448 97.6028 138.331 97.6028ZM138.195 107.194C139.496 107.194 140.311 106.374 140.311 105.202V103.19H138.254C136.759 103.19 135.963 103.893 135.963 105.202C135.963 106.55 136.875 107.194 138.195 107.194Z" fill="#4A381D"/>
</svg>
