<svg width="42" height="42" viewBox="0 0 42 42" fill="none" xmlns="http://www.w3.org/2000/svg">
<rect width="42" height="42" rx="16" fill="#F5BC00"/>
<g clip-path="url(#clip0_342_1145)">
<path d="M24.5 14H17.5C15.5752 14 14 15.5745 14 17.5V24.5C14 26.4248 15.5752 28 17.5 28H24.5C26.4248 28 28 26.4248 28 24.5V17.5C28 15.5745 26.4248 14 24.5 14ZM21 23.9166C19.3889 23.9166 18.0833 22.6103 18.0833 21C18.0833 19.3889 19.3889 18.0833 21 18.0833C22.6103 18.0833 23.9167 19.3889 23.9167 21C23.9167 22.6103 22.6103 23.9166 21 23.9166ZM24.7917 18.0833C24.308 18.0833 23.9167 17.6914 23.9167 17.2083C23.9167 16.7251 24.308 16.3333 24.7917 16.3333C25.2754 16.3333 25.6667 16.7251 25.6667 17.2083C25.6667 17.6914 25.2754 18.0833 24.7917 18.0833Z" fill="white"/>
</g>
<defs>
<clipPath id="clip0_342_1145">
<rect width="14" height="14" fill="white" transform="translate(14 14)"/>
</clipPath>
</defs>
</svg>
