<svg width="42" height="42" viewBox="0 0 42 42" fill="none" xmlns="http://www.w3.org/2000/svg">
<rect width="42" height="42" rx="21" fill="#013D14"/>
<path d="M15.7374 21.1973C15.2521 22.1513 15.8031 22.6073 17.0603 23.3863C18.1291 24.0465 19.6055 24.288 20.5539 24.3846C20.1652 24.7582 21.9465 23.0451 16.8165 27.9795C15.7287 29.0221 17.4799 30.6949 18.5669 29.6745L21.5095 26.8364C22.636 27.9201 23.7159 28.9588 24.4521 29.6784C25.5399 30.7028 27.2902 29.0443 26.2144 27.9835C26.1336 27.9067 22.2267 24.1589 22.465 24.3885C23.4253 24.2919 24.8796 24.0362 25.9357 23.3902L25.9349 23.3894C27.1921 22.6065 27.7431 22.1513 27.2649 21.1973C26.9759 20.6558 26.1969 20.203 25.1599 20.9859C25.1599 20.9859 23.7594 22.0587 21.5008 22.0587C19.2414 22.0587 17.8417 20.9859 17.8417 20.9859C16.8054 20.199 16.0232 20.6558 15.7374 21.1973V21.1973Z" fill="white"/>
<path d="M21.5025 20.6124C24.256 20.6124 26.5043 18.4607 26.5043 15.8118C26.5043 13.1518 24.256 11 21.5025 11C18.7483 11 16.5 13.1518 16.5 15.8118C16.5 18.4607 18.7483 20.6124 21.5025 20.6124ZM21.5025 13.4375C22.8555 13.4375 23.9591 14.4992 23.9591 15.8118C23.9591 17.1133 22.8555 18.1749 21.5025 18.1749C20.1496 18.1749 19.046 17.1133 19.046 15.8118C19.0452 14.4984 20.1488 13.4375 21.5025 13.4375V13.4375Z" fill="white"/>
</svg>
