<svg width="85" height="85" viewBox="0 0 85 85" fill="none" xmlns="http://www.w3.org/2000/svg">
<path fill-rule="evenodd" clip-rule="evenodd" d="M0 42.25C0 18.95 18.96 0 42.25 0C65.55 0 84.5 18.95 84.5 42.25V42.35C84.44 65.6 65.55 84.5 42.25 84.5C18.95 84.5 0 65.55 0 42.25ZM42.24 82.04C64.18 82.04 82.03 64.19 82.03 42.25H82.04V42.15C81.98 20.25 64.19 2.46 42.25 2.46C20.31 2.46 2.46 20.31 2.46 42.25C2.46 64.19 20.3 82.04 42.24 82.04ZM68.85 17.15C67.92 17.25 66.89 17.3 65.61 17.32C65.008 17.3266 64.4104 17.3245 63.794 17.3223H63.7939C63.4786 17.3212 63.1583 17.32 62.83 17.32H62.39C62.1119 17.32 61.8317 17.3189 61.55 17.3178L61.5485 17.3178C60.9796 17.3156 60.4048 17.3133 59.83 17.32C52.54 17.42 45.09 18.35 41.11 28.32C40.95 28.73 41.01 29.19 41.28 29.53C41.51 29.83 41.87 30.01 42.25 30.01C42.3 30.01 42.36 30.01 42.41 30C44.4341 29.7321 46.7437 29.6808 48.9775 29.6312L49.03 29.63L49.0616 29.6293C53.5918 29.5296 58.2792 29.4263 62.23 27.83C66.14 26.25 68.72 23.3 70.12 18.83C70.19 18.65 70.22 18.46 70.2 18.26C70.13 17.58 69.52 17.09 68.85 17.16V17.15ZM61.31 25.54C57.778 26.9767 53.3203 27.0696 49.0095 27.1594L48.98 27.16C47.41 27.19 45.81 27.23 44.26 27.34C47.81 20.54 53.66 19.87 59.86 19.78H61.03H62.37H62.81L62.8593 19.7805C63.8212 19.7904 64.7354 19.7997 65.64 19.78C66.18 19.78 66.69 19.76 67.16 19.74C65.93 22.57 64.04 24.44 61.31 25.54ZM38.64 29.99H38.52V29.98C38.3 29.96 33.09 29.43 30.39 26.73C27.08 23.42 27.58 20.58 29.02 19.14C30.46 17.71 33.31 17.2 36.61 20.51C39.3 23.21 39.84 28.42 39.86 28.64C39.9 29.01 39.77 29.37 39.51 29.63C39.28 29.86 38.96 29.99 38.64 29.99ZM31.76 20.5C31.37 20.5 31.03 20.63 30.77 20.89C29.94 21.72 30.48 23.33 32.14 24.99C33.42 26.27 35.64 26.94 37.15 27.26C36.83 25.75 36.16 23.53 34.88 22.25C33.74 21.11 32.62 20.5 31.76 20.5ZM23.94 31.92H60.38C62.82 31.92 64.8 33.71 64.8 35.91V41.72C64.8 42.4 64.25 42.95 63.57 42.95H61.38V62.43C61.38 64.44 59.75 66.08 57.74 66.08H26.16C24.15 66.08 22.51 64.44 22.51 62.43V42.95H20.74C20.06 42.95 19.51 42.4 19.51 41.72V35.91C19.51 33.71 21.5 31.92 23.94 31.92ZM38.25 34.38V40.48H46.07V34.38H38.25ZM43.5 63.6V42.94H40.4V63.6H43.5ZM21.98 35.9V40.47H35.79V34.37H23.94C22.88 34.37 21.98 35.07 21.98 35.9ZM24.98 42.94V62.42C24.98 63.07 25.51 63.6 26.16 63.6H37.93V42.94H24.98ZM57.74 63.6C58.39 63.6 58.92 63.07 58.92 62.42V42.94H45.97V63.6H57.74ZM48.54 40.48H62.35V35.91C62.35 35.08 61.45 34.38 60.39 34.38H48.54V40.48Z" fill="white"/>
</svg>
