<svg width="85" height="85" viewBox="0 0 85 85" fill="none" xmlns="http://www.w3.org/2000/svg">
<path fill-rule="evenodd" clip-rule="evenodd" d="M0 42.25C0 18.95 18.95 0 42.25 0C65.55 0 84.5 18.95 84.5 42.25C84.5 65.55 65.55 84.5 42.25 84.5C18.95 84.5 0 65.55 0 42.25ZM2.46 42.25C2.46 64.19 20.31 82.04 42.25 82.04C64.19 82.04 82.04 64.19 82.04 42.25C82.04 20.31 64.19 2.46 42.25 2.46C20.31 2.46 2.46 20.31 2.46 42.25ZM63.82 53.19C63.62 53.13 63.42 53.11 63.23 53.15C62.84 53.18 62.42 53.21 61.98 53.22V27.25C61.98 24.93 60 22.23 57.44 22.23H26.02C23.57 22.23 21.58 24.22 21.58 26.67V41.35C21.58 42.03 22.13 42.58 22.81 42.58H28.72V58.81C28.72 60.54 29.49 62.3 30.85 63.65C32.17 64.97 33.89 65.72 35.59 65.72H35.61C35.61 65.72 35.68 65.7 35.72 65.7C35.7488 65.7 35.7776 65.7046 35.8076 65.7094C35.84 65.7146 35.8736 65.72 35.91 65.72H36.06C37.42 65.56 38.65 65.57 40.21 65.59C40.4637 65.59 40.7246 65.592 40.9951 65.5942C41.5668 65.5987 42.1811 65.6036 42.86 65.59H43.15C47.71 65.54 52.42 65.48 56.41 63.93C60.42 62.36 63.0999 59.4 64.59 54.86C64.67 54.68 64.7 54.48 64.69 54.27C64.66 53.98 64.54 53.73 64.36 53.53C64.22 53.38 64.05 53.27 63.84 53.2L63.82 53.19ZM28.72 40.12H24.04V26.67C24.04 25.58 24.93 24.69 26.02 24.69H26.74C27.7 24.69 28.72 26 28.72 27.24V40.11V40.12ZM31.18 58.81V27.25C31.18 26.39 30.93 25.49 30.49 24.7H57.44C58.43 24.7 59.51 26.04 59.51 27.25V53.25C58.75 53.25 57.97 53.24 57.15 53.22C56.14 53.2 55.1 53.18 54.07 53.18C46.78 53.18 39.35 54 35.13 63.2C34.23 63.07 33.32 62.64 32.58 61.91C31.7 61.03 31.18 59.88 31.18 58.82V58.81ZM55.49 61.62C51.9245 63.0082 47.4414 63.0599 43.1066 63.1098L43.09 63.11H42.8C42.134 63.1168 41.5281 63.1143 40.9665 63.1121C40.7017 63.111 40.4467 63.11 40.2 63.11H38.87C38.54 63.11 38.21 63.11 37.88 63.12C41.55 56.24 47.4 55.64 54.06 55.64C55.08 55.64 56.1 55.66 57.09 55.68C58.7 55.72 60.26 55.74 61.6 55.7C60.3 58.62 58.32 60.52 55.48 61.63L55.49 61.62ZM46.71 34.56H35.89C35.21 34.56 34.66 34.01 34.66 33.33C34.66 32.65 35.21 32.1 35.89 32.1H46.71C47.39 32.1 47.94 32.65 47.94 33.33C47.94 34.01 47.39 34.56 46.71 34.56ZM55.08 34.56H50.99C50.31 34.56 49.76 34.01 49.76 33.33C49.76 32.65 50.31 32.1 50.99 32.1H55.08C55.76 32.1 56.31 32.65 56.31 33.33C56.31 34.01 55.76 34.56 55.08 34.56ZM50.99 40.96H55.08C55.76 40.96 56.31 40.41 56.31 39.73C56.31 39.05 55.76 38.5 55.08 38.5H50.99C50.31 38.5 49.76 39.05 49.76 39.73C49.76 40.41 50.31 40.96 50.99 40.96ZM46.71 40.96H35.89C35.21 40.96 34.66 40.41 34.66 39.73C34.66 39.05 35.21 38.5 35.89 38.5H46.71C47.39 38.5 47.94 39.05 47.94 39.73C47.94 40.41 47.39 40.96 46.71 40.96Z" fill="white"/>
</svg>
