<svg width="96" height="96" viewBox="0 0 96 96" fill="none" xmlns="http://www.w3.org/2000/svg">
<path fill-rule="evenodd" clip-rule="evenodd" d="M27 9C17.0595 9 9 17.0595 9 27V69C9 69.5775 9.027 70.1475 9.081 70.71L15.8835 59.826C23.4255 47.76 40.5315 46.5285 49.7235 57.3915L57.4755 66.5535C64.332 56.196 80.1255 56.0625 87 66.8115V48C87 47.2043 87.3161 46.4413 87.8787 45.8787C88.4413 45.3161 89.2044 45 90 45C90.7956 45 91.5587 45.3161 92.1213 45.8787C92.6839 46.4413 93 47.2043 93 48V69C93 82.2555 82.2555 93 69 93H27C13.7445 93 3 82.2555 3 69V27C3 13.7445 13.7445 3 27 3H48C48.7957 3 49.5587 3.31607 50.1213 3.87868C50.6839 4.44129 51 5.20435 51 6C51 6.79565 50.6839 7.55871 50.1213 8.12132C49.5587 8.68393 48.7957 9 48 9H27ZM85.269 76.71L82.683 71.3655C78.363 62.4435 65.721 62.673 61.6035 71.4315L74.1435 86.2545C76.5623 85.5305 78.8023 84.3071 80.7187 82.6633C82.635 81.0195 84.1852 78.9904 85.269 76.71ZM27 87C23.8706 87.0014 20.7949 86.1865 18.0767 84.6358C15.3585 83.0851 13.0918 80.8521 11.5005 78.1575L11.544 78.09L20.9715 63.006C26.358 54.387 38.577 53.508 45.1425 61.266L66.915 87H27Z" fill="#E5C796"/>
<path d="M89.007 23.2305C88.7141 23.494 88.372 23.6973 88.0005 23.8286C87.629 23.9599 87.2352 24.0168 86.8417 23.9959C86.4482 23.975 86.0626 23.8768 85.7071 23.7068C85.3515 23.5369 85.033 23.2986 84.7695 23.0055L76.5 13.8195V39C76.5 39.7957 76.184 40.5587 75.6214 41.1213C75.0588 41.6839 74.2957 42 73.5 42C72.7044 42 71.9413 41.6839 71.3787 41.1213C70.8161 40.5587 70.5 39.7957 70.5 39V13.818L62.2305 23.007C61.6983 23.5986 60.9528 23.9545 60.1581 23.9964C59.3634 24.0383 58.5846 23.7628 57.993 23.2305C57.4015 22.6982 57.0456 21.9527 57.0037 21.158C56.9618 20.3634 57.2373 19.5846 57.7695 18.993L66.81 8.94901C67.654 8.01116 68.6857 7.26124 69.8383 6.74791C70.9908 6.23457 72.2384 5.9693 73.5 5.9693C74.7617 5.9693 76.0093 6.23457 77.1618 6.74791C78.3144 7.26124 79.3461 8.01116 80.19 8.94901L89.2305 18.993C89.4941 19.286 89.6973 19.628 89.8286 19.9995C89.96 20.3711 90.0168 20.7649 89.9959 21.1584C89.975 21.5519 89.8768 21.9374 89.7069 22.293C89.5369 22.6485 89.3001 22.9671 89.007 23.2305Z" fill="#E5C796"/>
</svg>
