<svg width="26" height="26" viewBox="0 0 26 26" fill="none" xmlns="http://www.w3.org/2000/svg">
<circle cx="13" cy="13" r="13" fill="url(#paint0_linear_162_33568)"/>
<g filter="url(#filter0_i_162_33568)">
<path d="M12.9244 12.9723C13.7176 12.9723 14.4044 12.6878 14.9656 12.1265C15.5269 11.5653 15.8113 10.8787 15.8113 10.0854C15.8113 9.29235 15.5269 8.60561 14.9655 8.04421C14.4042 7.48309 13.7175 7.19861 12.9244 7.19861C12.1311 7.19861 11.4444 7.48309 10.8832 8.0443C10.322 8.60551 10.0374 9.29228 10.0374 10.0854C10.0374 10.8787 10.322 11.5654 10.8833 12.1266C11.4446 12.6878 12.1314 12.9723 12.9244 12.9723ZM17.9758 16.4153C17.9596 16.1817 17.9268 15.9269 17.8786 15.6579C17.83 15.3869 17.7674 15.1306 17.6924 14.8964C17.6149 14.6544 17.5096 14.4154 17.3794 14.1863C17.2442 13.9485 17.0855 13.7415 16.9073 13.5711C16.721 13.3929 16.493 13.2496 16.2292 13.1451C15.9664 13.0411 15.6752 12.9884 15.3636 12.9884C15.2412 12.9884 15.1229 13.0386 14.8944 13.1874C14.732 13.2932 14.569 13.3982 14.4056 13.5025C14.2486 13.6026 14.0359 13.6963 13.7732 13.7812C13.5169 13.8641 13.2566 13.9062 12.9997 13.9062C12.7429 13.9062 12.4827 13.8641 12.2261 13.7812C11.9637 13.6964 11.7509 13.6027 11.5941 13.5026C11.4122 13.3864 11.2476 13.2803 11.1049 13.1873C10.8766 13.0385 10.7582 12.9883 10.6359 12.9883C10.3242 12.9883 10.033 13.0411 9.77031 13.1452C9.50675 13.2495 9.2786 13.3928 9.09214 13.5712C8.9141 13.7417 8.75526 13.9486 8.62028 14.1863C8.49017 14.4153 8.38482 14.6543 8.30726 14.8965C8.23235 15.1307 8.16973 15.3869 8.12108 15.6579C8.07288 15.9266 8.04015 16.1815 8.02395 16.4156C8.00784 16.6511 7.99985 16.8872 8 17.1233C8 17.749 8.1989 18.2555 8.59111 18.6291C8.97848 18.9977 9.49102 19.1847 10.1143 19.1847H15.8857C16.509 19.1847 17.0213 18.9978 17.4088 18.6291C17.8011 18.2558 18 17.7492 18 17.1232C17.9999 16.8817 17.9918 16.6435 17.9758 16.4153Z" fill="#988765"/>
</g>
<defs>
<filter id="filter0_i_162_33568" x="8" y="7.19861" width="10" height="12.9861" filterUnits="userSpaceOnUse" color-interpolation-filters="sRGB">
<feFlood flood-opacity="0" result="BackgroundImageFix"/>
<feBlend mode="normal" in="SourceGraphic" in2="BackgroundImageFix" result="shape"/>
<feColorMatrix in="SourceAlpha" type="matrix" values="0 0 0 0 0 0 0 0 0 0 0 0 0 0 0 0 0 0 127 0" result="hardAlpha"/>
<feOffset dy="1"/>
<feGaussianBlur stdDeviation="0.5"/>
<feComposite in2="hardAlpha" operator="arithmetic" k2="-1" k3="1"/>
<feColorMatrix type="matrix" values="0 0 0 0 0 0 0 0 0 0 0 0 0 0 0 0 0 0 0.25 0"/>
<feBlend mode="normal" in2="shape" result="effect1_innerShadow_162_33568"/>
</filter>
<linearGradient id="paint0_linear_162_33568" x1="13" y1="0" x2="13" y2="26" gradientUnits="userSpaceOnUse">
<stop stop-color="#FFF6D8"/>
<stop offset="1" stop-color="#E5C796"/>
</linearGradient>
</defs>
</svg>
