<svg width="16" height="16" viewBox="0 0 16 16" fill="none" xmlns="http://www.w3.org/2000/svg">
<g clip-path="url(#clip0_450_512)">
<path d="M13.3333 4.66667H12.1747C12.5516 4.3344 12.8508 3.92325 13.051 3.4624C13.2513 3.00154 13.3477 2.50227 13.3333 2C13.3333 1.82319 13.2631 1.65362 13.1381 1.5286C13.013 1.40357 12.8435 1.33333 12.6667 1.33333C12.4899 1.33333 12.3203 1.40357 12.1953 1.5286C12.0702 1.65362 12 1.82319 12 2C12 3.748 10.4193 4.35333 9.21733 4.56067C9.66099 3.77404 9.92806 2.90025 10 2C10 1.46957 9.78929 0.960859 9.41421 0.585786C9.03914 0.210714 8.53043 0 8 0C7.46957 0 6.96086 0.210714 6.58579 0.585786C6.21071 0.960859 6 1.46957 6 2C6.07194 2.90025 6.33901 3.77404 6.78267 4.56067C5.58067 4.35333 4 3.748 4 2C4 1.82319 3.92976 1.65362 3.80474 1.5286C3.67971 1.40357 3.51014 1.33333 3.33333 1.33333C3.15652 1.33333 2.98695 1.40357 2.86193 1.5286C2.7369 1.65362 2.66667 1.82319 2.66667 2C2.65234 2.50227 2.74872 3.00154 2.94896 3.4624C3.1492 3.92325 3.4484 4.3344 3.82533 4.66667H2.66667C1.95942 4.66667 1.28115 4.94762 0.781049 5.44772C0.280952 5.94781 0 6.62609 0 7.33333L0 8C0 8.35362 0.140476 8.69276 0.390524 8.94281C0.640573 9.19286 0.979711 9.33333 1.33333 9.33333V12.6667C1.33439 13.5504 1.68592 14.3976 2.31081 15.0225C2.93571 15.6474 3.78294 15.9989 4.66667 16H11.3333C12.2171 15.9989 13.0643 15.6474 13.6892 15.0225C14.3141 14.3976 14.6656 13.5504 14.6667 12.6667V9.33333C15.0203 9.33333 15.3594 9.19286 15.6095 8.94281C15.8595 8.69276 16 8.35362 16 8V7.33333C16 6.62609 15.719 5.94781 15.219 5.44772C14.7189 4.94762 14.0406 4.66667 13.3333 4.66667ZM8 1.33333C8.17681 1.33333 8.34638 1.40357 8.4714 1.5286C8.59643 1.65362 8.66667 1.82319 8.66667 2C8.58619 2.70855 8.35915 3.39261 8 4.00867C7.64085 3.39261 7.41381 2.70855 7.33333 2C7.33333 1.82319 7.40357 1.65362 7.5286 1.5286C7.65362 1.40357 7.82319 1.33333 8 1.33333ZM1.33333 7.33333C1.33333 6.97971 1.47381 6.64057 1.72386 6.39052C1.97391 6.14048 2.31304 6 2.66667 6H7.33333V8H1.33333V7.33333ZM2.66667 12.6667V9.33333H7.33333V14.6667H4.66667C4.13623 14.6667 3.62753 14.456 3.25245 14.0809C2.87738 13.7058 2.66667 13.1971 2.66667 12.6667ZM13.3333 12.6667C13.3333 13.1971 13.1226 13.7058 12.7475 14.0809C12.3725 14.456 11.8638 14.6667 11.3333 14.6667H8.66667V9.33333H13.3333V12.6667ZM8.66667 8V6H13.3333C13.687 6 14.0261 6.14048 14.2761 6.39052C14.5262 6.64057 14.6667 6.97971 14.6667 7.33333V8H8.66667Z" fill="#90F9B1"/>
</g>
<defs>
<clipPath id="clip0_450_512">
<rect width="16" height="16" fill="white"/>
</clipPath>
</defs>
</svg>
