<svg width="91" height="91" viewBox="0 0 91 91" fill="none" xmlns="http://www.w3.org/2000/svg">
<circle cx="45.5" cy="45.5" r="45.5" fill="white"/>
<g clip-path="url(#clip0_399_1218)">
<path d="M56.7313 62.2469L47 59.4344L37.2687 62.2469C37.1844 62.4156 37.1562 62.5844 37.1562 62.7813V68.5938H56.8438V62.7813C56.8438 62.5844 56.8156 62.4156 56.7313 62.2469Z" fill="#646D73"/>
<path d="M56.8438 68.5938V62.7813C56.8438 62.5844 56.8156 62.4156 56.7313 62.2469L47 59.4344V68.5938H56.8438Z" fill="#474F54"/>
<path d="M69.5938 24.8125H62.4083C62.4207 24.3375 62.4688 23.89 62.4688 23.4062C62.4688 22.6187 61.8501 22 61.0625 22H32.9375C32.1499 22 31.5312 22.6187 31.5312 23.4062C31.5312 23.89 31.5793 24.3375 31.5915 24.8125H24.4062C23.629 24.8125 23 25.4415 23 26.2187V29.7811C23 37.633 29.2899 44.0115 37.0412 44.4221C38.6561 46.6455 40.5726 48.2955 42.7531 49.225C42.4156 56.0594 38.5063 60.8125 37.5782 61.797C37.4375 61.9094 37.325 62.0781 37.2687 62.2469H56.7313C56.675 62.0781 56.5626 61.9094 56.4219 61.797C55.4656 60.8125 51.5844 56.0875 51.2469 49.225C53.4279 48.2953 55.3559 46.6449 56.9721 44.4207C64.7168 44.0034 71 37.6286 71 29.7811V26.2187C71 25.4415 70.371 24.8125 69.5938 24.8125ZM25.8125 29.7811V27.625H31.7122C32.0772 32.2729 33.0851 37.1956 35.2034 41.3789C29.8934 40.1831 25.8125 35.4478 25.8125 29.7811ZM68.1875 29.7811C68.1875 35.4449 64.1102 40.1779 58.8042 41.3764C60.9058 37.1932 61.9193 32.3182 62.2878 27.625H68.1875V29.7811Z" fill="url(#paint0_linear_399_1218)"/>
<path d="M49.244 39.8871L47 38.7212L44.756 39.8871C44.2863 40.1288 43.7123 40.089 43.2811 39.7773C43.0698 39.6239 42.9054 39.4147 42.8064 39.173C42.7075 38.9314 42.6778 38.667 42.7208 38.4095L43.1328 35.9114L41.3338 34.1358C40.9423 33.754 40.8225 33.188 40.9823 32.6993C41.0634 32.451 41.2119 32.2302 41.4112 32.0614C41.6105 31.8926 41.8529 31.7826 42.1111 31.7435L44.6105 31.3672L45.7421 29.1054C46.22 28.1524 47.78 28.1524 48.2579 29.1054L49.3895 31.3672L51.8889 31.7435C52.1471 31.7826 52.3894 31.8927 52.5888 32.0614C52.7881 32.2302 52.9366 32.4511 53.0177 32.6993C53.0989 32.9477 53.109 33.2139 53.0469 33.4677C52.9847 33.7215 52.8529 33.9529 52.6662 34.1358L50.8672 35.9114L51.2792 38.4095C51.3222 38.667 51.2926 38.9314 51.1936 39.1731C51.0946 39.4147 50.9302 39.6239 50.7189 39.7773C50.2905 40.0877 49.7175 40.1335 49.244 39.8871Z" fill="#FFFEEF"/>
<path d="M58.25 70H35.75C34.9727 70 34.3438 69.371 34.3438 68.5938C34.3438 67.8165 34.9727 67.1875 35.75 67.1875H58.25C59.0273 67.1875 59.6562 67.8165 59.6562 68.5938C59.6562 69.371 59.0273 70 58.25 70Z" fill="#474F54"/>
<path d="M58.25 67.1875H47V70H58.25C59.0273 70 59.6562 69.371 59.6562 68.5938C59.6562 67.8165 59.0273 67.1875 58.25 67.1875Z" fill="#32393F"/>
</g>
<defs>
<linearGradient id="paint0_linear_399_1218" x1="37.6328" y1="55.4974" x2="35.3943" y2="32.0456" gradientUnits="userSpaceOnUse">
<stop stop-color="#F5BC00"/>
<stop offset="1" stop-color="#FFE281"/>
</linearGradient>
<clipPath id="clip0_399_1218">
<rect width="48" height="48" fill="white" transform="translate(23 22)"/>
</clipPath>
</defs>
</svg>
