<svg width="42" height="42" viewBox="0 0 42 42" fill="none" xmlns="http://www.w3.org/2000/svg">
<rect width="42" height="42" rx="21" fill="#013D14"/>
<path d="M29.5273 16.8488C29.3328 16.1259 28.7628 15.556 28.04 15.3613C26.7195 15 21.4373 15 21.4373 15C21.4373 15 16.1553 15 14.8348 15.3476C14.1259 15.5421 13.542 16.126 13.3475 16.8488C13 18.1692 13 20.9076 13 20.9076C13 20.9076 13 23.6597 13.3475 24.9664C13.5422 25.6892 14.112 26.2591 14.8349 26.4537C16.1692 26.8151 21.4375 26.8151 21.4375 26.8151C21.4375 26.8151 26.7195 26.8151 28.04 26.4675C28.7629 26.273 29.3328 25.7031 29.5275 24.9803C29.8749 23.6597 29.8749 20.9215 29.8749 20.9215C29.8749 20.9215 29.8888 18.1692 29.5273 16.8488V16.8488ZM19.7556 23.4374V18.3778L24.148 20.9076L19.7556 23.4374Z" fill="white"/>
</svg>
