<svg width="85" height="85" viewBox="0 0 85 85" fill="none" xmlns="http://www.w3.org/2000/svg">
<path fill-rule="evenodd" clip-rule="evenodd" d="M42.25 0C18.95 0 0 18.95 0 42.25C0 65.55 18.95 84.5 42.25 84.5C65.55 84.5 84.5 65.55 84.5 42.25C84.5 18.95 65.55 0 42.25 0ZM42.25 82.04C20.31 82.04 2.46 64.19 2.46 42.25C2.46 20.31 20.31 2.46 42.25 2.46C64.19 2.46 82.04 20.31 82.04 42.25C82.04 64.19 64.19 82.04 42.25 82.04ZM66.76 32.7301H48.26C50.42 30.2601 52.4 27.6701 53.54 24.8201C55.07 20.9501 54.72 17.1101 52.47 13.0801C52.14 12.4901 51.39 12.2701 50.79 12.6101C50.62 12.7101 50.47 12.8401 50.37 13.0001C49.83 13.6901 49.19 14.4301 48.36 15.3301C47.76 15.9701 47.14 16.6201 46.48 17.2901L46.39 17.3901L46.3705 17.4101C45.7368 18.0636 45.0935 18.7271 44.46 19.4101C41.13 22.9901 37.84 27.1501 37.84 32.7401H17.74C15.82 32.7401 14.26 34.3001 14.26 36.2201V41.4201C14.26 43.3401 15.82 44.9001 17.74 44.9001H17.84L22.88 61.4701C23.68 64.1101 26.08 65.8901 28.84 65.8901H55.68C58.44 65.8901 60.84 64.1201 61.64 61.4701L66.68 44.9001H66.77C68.69 44.9001 70.25 43.3401 70.25 41.4201V36.2201C70.25 34.3001 68.69 32.7401 66.77 32.7401L66.76 32.7301ZM59.27 60.7501C58.79 62.3501 57.34 63.4201 55.67 63.4201H28.83C27.16 63.4201 25.71 62.3501 25.23 60.7501L20.41 44.9001H64.09L59.27 60.7501ZM46.24 21.0801C46.655 20.6321 47.0787 20.1928 47.4968 19.7594C47.7134 19.5348 47.9284 19.3119 48.14 19.0901L48.23 19.0001C48.9 18.3101 49.53 17.6601 50.14 17.0001C50.49 16.6201 50.81 16.2701 51.11 15.9301C52.26 18.6801 52.29 21.2601 51.24 23.9101C49.86 27.3701 46.92 30.5901 44 33.7701L43.808 33.9805C42.8358 35.0458 41.8933 36.0785 41.03 37.1201C40.86 36.6101 40.73 36.1101 40.61 35.6201C40.5842 35.5167 40.5667 35.4176 40.5495 35.3199L40.5495 35.3199C40.54 35.2663 40.5306 35.2132 40.52 35.1601C40.45 34.8201 40.4 34.4901 40.36 34.1601C39.72 28.7301 42.74 24.8501 46.24 21.0901V21.0801ZM67.77 41.4201C67.77 41.9801 67.31 42.4401 66.75 42.4401H17.74C17.18 42.4401 16.72 41.9801 16.72 41.4201V36.2201C16.72 35.6601 17.18 35.2001 17.74 35.2001H38.02C38.1 35.6501 38.2 36.1101 38.32 36.5601L38.41 36.8601C38.52 37.2501 38.64 37.6501 38.78 38.0501C38.83 38.21 38.8899 38.3699 38.9499 38.5298L38.95 38.5299L38.95 38.5301C39.11 38.9601 39.29 39.3901 39.48 39.8301C39.495 39.8701 39.51 39.9076 39.525 39.9451C39.54 39.9826 39.555 40.0201 39.57 40.0601C39.75 40.4601 40.13 40.7301 40.57 40.7701H40.69C40.71 40.7701 40.73 40.7676 40.75 40.7651C40.77 40.7626 40.79 40.7601 40.81 40.7601C40.85 40.7601 40.89 40.7601 40.93 40.7501C40.9778 40.7421 41.0192 40.7278 41.0643 40.7122L41.1 40.7001C41.14 40.6901 41.19 40.6701 41.23 40.6501C41.25 40.6401 41.27 40.6276 41.29 40.6151C41.31 40.6026 41.33 40.5901 41.35 40.5801L41.3501 40.58C41.4001 40.55 41.45 40.52 41.49 40.4901C41.4954 40.4901 41.5008 40.4842 41.5062 40.4773C41.5075 40.4757 41.5087 40.474 41.51 40.4723C41.5133 40.4678 41.5167 40.4634 41.52 40.4601C41.54 40.4401 41.56 40.4212 41.58 40.4023C41.62 40.3645 41.66 40.3267 41.7 40.2801C42.8333 38.7267 44.2528 37.1734 45.8002 35.4802L45.8002 35.4802L45.91 35.3601L46.07 35.1901H66.78C67.34 35.1901 67.8 35.6501 67.8 36.2101V41.4101L67.77 41.4201ZM34.01 59.83C34.01 60.51 33.46 61.06 32.78 61.06C32.1 61.06 31.55 60.51 31.55 59.83V48.88C31.55 48.2 32.1 47.65 32.78 47.65C33.46 47.65 34.01 48.2 34.01 48.88V59.83ZM43.48 59.83C43.48 60.51 42.93 61.06 42.25 61.06C41.57 61.06 41.02 60.51 41.02 59.83V48.88C41.02 48.2 41.57 47.65 42.25 47.65C42.93 47.65 43.48 48.2 43.48 48.88V59.83ZM51.72 61.06C52.4 61.06 52.95 60.51 52.95 59.83V48.88C52.95 48.2 52.4 47.65 51.72 47.65C51.04 47.65 50.49 48.2 50.49 48.88V59.83C50.49 60.51 51.04 61.06 51.72 61.06Z" fill="white"/>
</svg>
