<svg width="16" height="17" viewBox="0 0 16 17" fill="none" xmlns="http://www.w3.org/2000/svg">
<path fill-rule="evenodd" clip-rule="evenodd" d="M7 14.8201C8.57234 14.8201 10.0236 14.3017 11.1922 13.4265L14.2929 16.5272L15.7071 15.113L12.6064 12.0122C13.4816 10.8437 14 9.3924 14 7.82007C14 3.95408 10.866 0.820068 7 0.820068C3.13401 0.820068 0 3.95408 0 7.82007C0 11.6861 3.13401 14.8201 7 14.8201ZM7 12.8201C9.76142 12.8201 12 10.5815 12 7.82007C12 5.05864 9.76142 2.82007 7 2.82007C4.23858 2.82007 2 5.05864 2 7.82007C2 10.5815 4.23858 12.8201 7 12.8201Z" fill="white"/>
</svg>
