<svg width="24" height="24" viewBox="0 0 24 24" fill="none" xmlns="http://www.w3.org/2000/svg">
<path d="M18.7528 20.7316H14.8737H13.8292H13.6036V15.5285H15.3053C15.7368 15.5285 15.9918 15.0381 15.7368 14.685L12.4266 10.1047C12.2158 9.81045 11.7793 9.81045 11.5685 10.1047L8.25828 14.685C8.00327 15.0381 8.25337 15.5285 8.68982 15.5285H10.3915V20.7316H10.1659H9.12137H4.62444C2.04986 20.5894 0 18.1815 0 15.5726C0 13.7729 0.975889 12.2036 2.42256 11.3552C2.29015 10.9972 2.2215 10.6147 2.2215 10.2126C2.2215 8.37358 3.7074 6.88768 5.54638 6.88768C5.9436 6.88768 6.32611 6.95634 6.6841 7.08874C7.74826 4.83292 10.0433 3.26855 12.7111 3.26855C16.1635 3.27346 19.0078 5.9167 19.3314 9.28572C21.9845 9.74179 24 12.1987 24 14.9792C24 17.951 21.6853 20.5256 18.7528 20.7316Z" fill="white"/>
</svg>
