<svg width="42" height="42" viewBox="0 0 42 42" fill="none" xmlns="http://www.w3.org/2000/svg">
<rect width="42" height="42" rx="16" fill="#F5BC00"/>
<g clip-path="url(#clip0_342_1148)">
<path d="M26.9362 21.771C26.6452 21.4035 26.7285 21.24 26.9362 20.9115C26.94 20.9078 29.3422 17.5883 29.5897 16.4625L29.5912 16.4618C29.7142 16.0515 29.5912 15.75 28.9965 15.75H27.0285C26.5275 15.75 26.2965 16.0088 26.1727 16.2983C26.1727 16.2983 25.1707 18.6968 23.7532 20.2515C23.2957 20.7008 23.0842 20.8448 22.8345 20.8448C22.7115 20.8448 22.5202 20.7008 22.5202 20.2905V16.4618C22.5202 15.9697 22.38 15.75 21.9652 15.75H18.8707C18.5565 15.75 18.3697 15.9795 18.3697 16.1933C18.3697 16.6598 19.0785 16.767 19.152 18.0795V20.9273C19.152 21.5513 19.0387 21.666 18.7875 21.666C18.1185 21.666 16.4947 19.2578 15.5325 16.5015C15.3382 15.9667 15.1485 15.7507 14.6437 15.7507H12.675C12.1132 15.7507 12 16.0095 12 16.299C12 16.8105 12.669 19.3538 15.111 22.7138C16.7385 25.0073 19.0305 26.25 21.1155 26.25C22.3687 26.25 22.5217 25.974 22.5217 25.4993C22.5217 23.3078 22.4085 23.1008 23.0362 23.1008C23.3272 23.1008 23.8282 23.2448 24.9982 24.351C26.3355 25.6628 26.5552 26.25 27.3037 26.25H29.2717C29.8327 26.25 30.117 25.974 29.9535 25.4295C29.5792 24.2843 27.0502 21.9285 26.9362 21.771V21.771Z" fill="white"/>
</g>
<defs>
<clipPath id="clip0_342_1148">
<rect width="18" height="18" fill="white" transform="translate(12 12)"/>
</clipPath>
</defs>
</svg>
