<svg width="42" height="42" viewBox="0 0 42 42" fill="none" xmlns="http://www.w3.org/2000/svg">
<rect width="42" height="42" rx="16" fill="#F5BC00"/>
<path d="M29.081 16.7824C28.8865 16.0594 28.3165 15.4896 27.5937 15.2949C26.2732 14.9336 20.991 14.9336 20.991 14.9336C20.991 14.9336 15.709 14.9336 14.3885 15.2812C13.6796 15.4757 13.0957 16.0596 12.9012 16.7824C12.5537 18.1028 12.5537 20.8412 12.5537 20.8412C12.5537 20.8412 12.5537 23.5933 12.9012 24.8999C13.0959 25.6228 13.6657 26.1927 14.3886 26.3873C15.7229 26.7487 20.9912 26.7487 20.9912 26.7487C20.9912 26.7487 26.2732 26.7487 27.5937 26.4011C28.3167 26.2066 28.8865 25.6367 29.0812 24.9138C29.4286 23.5933 29.4286 20.8551 29.4286 20.8551C29.4286 20.8551 29.4425 18.1028 29.081 16.7824V16.7824ZM19.3093 23.371V18.3114L23.7017 20.8412L19.3093 23.371Z" fill="white"/>
</svg>
